<svg width="701" height="678" viewBox="0 0 701 678" fill="none" xmlns="http://www.w3.org/2000/svg">
<path d="M314.561 675.976C314.561 675.976 441.921 696.176 541.803 607.798C641.685 519.421 669.163 375.74 694.507 260.025C719.852 144.31 665.979 41.344 566.431 8.34775C466.883 -24.6485 423.835 59.2648 301.045 85.7688C178.254 112.273 140.905 100.703 54.603 189.961C-31.6993 279.219 -11.8152 448.461 97.587 556.111C206.989 663.762 314.561 675.976 314.561 675.976Z" fill="#007BFF"/>
<path opacity="0.7" d="M314.561 675.976C314.561 675.976 441.921 696.176 541.803 607.798C641.685 519.421 669.163 375.74 694.507 260.025C719.852 144.31 665.979 41.344 566.431 8.34775C466.883 -24.6485 423.835 59.2648 301.045 85.7688C178.254 112.273 140.905 100.703 54.603 189.961C-31.6993 279.219 -11.8152 448.461 97.587 556.111C206.989 663.762 314.561 675.976 314.561 675.976Z" fill="white"/>
</svg>
